<svg width="16" height="16" viewBox="0 0 16 16" fill="none" xmlns="http://www.w3.org/2000/svg">
<path d="M14.5935 8.45565C14.7766 8.29872 14.8682 8.22025 14.9017 8.12687C14.9311 8.04492 14.9311 7.95527 14.9017 7.87332C14.8682 7.77995 14.7766 7.70148 14.5935 7.54454L8.24047 2.09908C7.9253 1.82893 7.76772 1.69385 7.6343 1.69055C7.51835 1.68767 7.40759 1.73861 7.33432 1.82852C7.25 1.93197 7.25 2.13952 7.25 2.55463V5.77607C5.64899 6.05616 4.1837 6.86741 3.09478 8.0855C1.90762 9.41348 1.25093 11.1321 1.25 12.9133V13.3723C2.03701 12.4242 3.01963 11.6575 4.13057 11.1245C5.11002 10.6547 6.16881 10.3763 7.25 10.303V13.4456C7.25 13.8607 7.25 14.0682 7.33432 14.1717C7.40759 14.2616 7.51835 14.3125 7.6343 14.3096C7.76772 14.3063 7.9253 14.1713 8.24047 13.9011L14.5935 8.45565Z" stroke="#0B3BEC" stroke-width="1.5" stroke-linecap="round" stroke-linejoin="round"/>
</svg>
