<svg width="20" height="19" viewBox="0 0 20 19" fill="none" xmlns="http://www.w3.org/2000/svg">
<g id="Group 29">
<path id="Rectangle 52" d="M2.5 9.83325C2.5 8.60358 2.5 7.98874 2.58242 7.47512C2.99767 4.88739 4.91224 2.86019 7.35621 2.42052C7.8413 2.33325 8.42198 2.33325 9.58333 2.33325H10.4167C11.578 2.33325 12.1587 2.33325 12.6438 2.42052C15.0878 2.86019 17.0023 4.88739 17.4176 7.47512C17.5 7.98874 17.5 8.60358 17.5 9.83325C17.5 11.0629 17.5 11.6778 17.4176 12.1914C17.0023 14.7791 15.0878 16.8063 12.6438 17.246C12.1587 17.3333 11.578 17.3333 10.4167 17.3333H9.58333C8.42198 17.3333 7.8413 17.3333 7.35621 17.246C4.91224 16.8063 2.99767 14.7791 2.58242 12.1914C2.5 11.6778 2.5 11.0629 2.5 9.83325Z" stroke="#0B3BEC" stroke-width="1.5" stroke-linecap="round" stroke-linejoin="round"/>
<g id="Vector">
<path d="M17.5003 8.58341C17.5003 8.3533 17.6869 8.16675 17.917 8.16675C18.1471 8.16675 18.3337 8.3533 18.3337 8.58341V11.0834C18.3337 11.3135 18.1471 11.5001 17.917 11.5001C17.6869 11.5001 17.5003 11.3135 17.5003 11.0834V8.58341Z" stroke="#0B3BEC" stroke-width="1.5" stroke-linecap="round" stroke-linejoin="round"/>
<path d="M1.66699 8.58341C1.66699 8.3533 1.85354 8.16675 2.08366 8.16675C2.31378 8.16675 2.50033 8.3533 2.50033 8.58341V11.0834C2.50033 11.3135 2.31378 11.5001 2.08366 11.5001C1.85354 11.5001 1.66699 11.3135 1.66699 11.0834V8.58341Z" stroke="#0B3BEC" stroke-width="1.5" stroke-linecap="round" stroke-linejoin="round"/>
</g>
<path id="Vector_2" d="M6.24995 13.1667H7.08329C7.3134 13.1667 7.49995 13.3532 7.49995 13.5834C7.49995 13.8135 7.6865 14 7.91662 14H8.74995C8.98007 14 9.16662 13.8135 9.16662 13.5834C9.16662 13.3532 9.35317 13.1667 9.58329 13.1667H10.4166C10.6467 13.1667 10.8333 13.3532 10.8333 13.5834C10.8333 13.8135 11.0198 14 11.25 14H12.0833C12.3134 14 12.5 13.8135 12.5 13.5834C12.5 13.3532 12.6865 13.1667 12.9166 13.1667H13.75M12.9167 10.6667H13.75C14.1383 10.6667 14.3324 10.6667 14.4856 10.6033C14.6898 10.5187 14.852 10.3565 14.9366 10.1523C15 9.99917 15 9.80503 15 9.41675C15 9.02846 15 8.83432 14.9366 8.68118C14.852 8.47699 14.6898 8.31476 14.4856 8.23018C14.3324 8.16675 14.1383 8.16675 13.75 8.16675H12.9167C12.5284 8.16675 12.3342 8.16675 12.1811 8.23018C11.9769 8.31476 11.8147 8.47699 11.7301 8.68118C11.6667 8.83432 11.6667 9.02846 11.6667 9.41675C11.6667 9.80503 11.6667 9.99917 11.7301 10.1523C11.8147 10.3565 11.9769 10.5187 12.1811 10.6033C12.3342 10.6667 12.5284 10.6667 12.9167 10.6667ZM6.25 10.6667H7.08333C7.47162 10.6667 7.66576 10.6667 7.8189 10.6033C8.02309 10.5187 8.18532 10.3565 8.2699 10.1523C8.33333 9.99917 8.33333 9.80503 8.33333 9.41675C8.33333 9.02846 8.33333 8.83432 8.2699 8.68118C8.18532 8.47699 8.02309 8.31476 7.8189 8.23018C7.66576 8.16675 7.47162 8.16675 7.08333 8.16675H6.25C5.86172 8.16675 5.66757 8.16675 5.51443 8.23018C5.31024 8.31476 5.14801 8.47699 5.06343 8.68118C5 8.83432 5 9.02846 5 9.41675C5 9.80503 5 9.99917 5.06343 10.1523C5.14801 10.3565 5.31024 10.5187 5.51443 10.6033C5.66757 10.6667 5.86172 10.6667 6.25 10.6667Z" stroke="#0B3BEC" stroke-width="1.5" stroke-linecap="round" stroke-linejoin="round"/>
<path id="Vector_3" d="M17.399 6.66034L17.9464 6.11294C18.4956 5.56383 18.7701 5.28927 18.897 4.98298C19.0661 4.5746 19.0661 4.11575 18.897 3.70737C18.7701 3.40109 18.4956 3.12653 17.9464 2.57741C17.3973 2.0283 17.1228 1.75373 16.8165 1.62687C16.4081 1.45771 15.9493 1.45771 15.5409 1.62687C15.2727 1.73794 15.0289 1.96223 14.6038 2.38487C14.5289 2.45933 14.4915 2.49656 14.4542 2.53008C14.4205 2.56038 14.3876 2.58807 14.3519 2.61606C14.3125 2.64701 14.2711 2.67626 14.1884 2.73475L14.1668 2.75M2.39905 6.60109L1.91091 6.11294C1.36179 5.56383 1.08723 5.28927 0.960363 4.98298C0.791207 4.5746 0.791207 4.11575 0.960363 3.70737C1.08723 3.40109 1.36179 3.12653 1.91091 2.57741C2.46002 2.02829 2.73458 1.75373 3.04087 1.62687C3.44925 1.45771 3.9081 1.45771 4.31648 1.62687C4.62277 1.75373 4.89732 2.02829 5.44644 2.57741L5.76201 2.89298" stroke="#0B3BEC" stroke-width="1.5" stroke-linecap="round" stroke-linejoin="round"/>
</g>
</svg>
