<svg width="20" height="16" viewBox="0 0 20 15" fill="none" xmlns="http://www.w3.org/2000/svg">
<path d="M1.66675 3.33337L8.47085 8.09624C9.02182 8.48193 9.29731 8.67477 9.59697 8.74946C9.86166 8.81544 10.1385 8.81544 10.4032 8.74946C10.7029 8.67477 10.9783 8.48193 11.5293 8.09624L18.3334 3.33337M5.66675 14.1667H14.3334C15.7335 14.1667 16.4336 14.1667 16.9684 13.8942C17.4388 13.6545 17.8212 13.2721 18.0609 12.8017C18.3334 12.2669 18.3334 11.5668 18.3334 10.1667V4.83337C18.3334 3.43324 18.3334 2.73318 18.0609 2.1984C17.8212 1.72799 17.4388 1.34554 16.9684 1.10586C16.4336 0.833374 15.7335 0.833374 14.3334 0.833374H5.66675C4.26662 0.833374 3.56655 0.833374 3.03177 1.10586C2.56137 1.34554 2.17892 1.72799 1.93923 2.1984C1.66675 2.73318 1.66675 3.43324 1.66675 4.83337V10.1667C1.66675 11.5668 1.66675 12.2669 1.93923 12.8017C2.17892 13.2721 2.56137 13.6545 3.03177 13.8942C3.56655 14.1667 4.26662 14.1667 5.66675 14.1667Z" stroke="#667085" stroke-width="1.5" stroke-linecap="round" stroke-linejoin="round"/>
</svg>
