<svg width="16" height="14" viewBox="0 0 16 14" fill="none" xmlns="http://www.w3.org/2000/svg">
<path d="M1.3335 3.66675L6.77678 7.47704C7.21756 7.78559 7.43795 7.93986 7.67767 7.99962C7.88943 8.0524 8.1109 8.0524 8.32265 7.99962C8.56238 7.93986 8.78277 7.78559 9.22355 7.47704L14.6668 3.66675M4.5335 12.3334H11.4668C12.5869 12.3334 13.147 12.3334 13.5748 12.1154C13.9511 11.9237 14.2571 11.6177 14.4488 11.2414C14.6668 10.8136 14.6668 10.2535 14.6668 9.13341V4.86675C14.6668 3.74664 14.6668 3.18659 14.4488 2.75877C14.2571 2.38244 13.9511 2.07648 13.5748 1.88474C13.147 1.66675 12.5869 1.66675 11.4668 1.66675H4.5335C3.41339 1.66675 2.85334 1.66675 2.42552 1.88474C2.04919 2.07648 1.74323 2.38244 1.55148 2.75877C1.3335 3.18659 1.3335 3.74664 1.3335 4.86675V9.13341C1.3335 10.2535 1.3335 10.8136 1.55148 11.2414C1.74323 11.6177 2.04919 11.9237 2.42552 12.1154C2.85334 12.3334 3.41339 12.3334 4.5335 12.3334Z" stroke="#667085" stroke-width="1.5" stroke-linecap="round" stroke-linejoin="round"/>
</svg>
