<svg width="20" height="20" viewBox="0 0 20 20" fill="none" xmlns="http://www.w3.org/2000/svg">
<g clip-path="url(#clip0_11268_38821)">
<path d="M8.74984 1.66932C8.1873 1.67695 7.84959 1.70951 7.57652 1.84865C7.26292 2.00844 7.00795 2.2634 6.84816 2.57701C6.70903 2.85007 6.67646 3.18778 6.66883 3.75033M16.2498 1.66932C16.8124 1.67695 17.1501 1.70951 17.4232 1.84865C17.7368 2.00844 17.9917 2.2634 18.1515 2.57701C18.2906 2.85007 18.3232 3.18778 18.3308 3.75032M18.3308 11.2503C18.3232 11.8129 18.2907 12.1506 18.1515 12.4236C17.9917 12.7372 17.7368 12.9922 17.4232 13.152C17.1501 13.2911 16.8124 13.3237 16.2498 13.3313M18.3332 6.66699V8.33365M11.6665 1.66699H13.3331M4.33317 18.3337H10.6665C11.5999 18.3337 12.0666 18.3337 12.4232 18.152C12.7368 17.9922 12.9917 17.7372 13.1515 17.4236C13.3332 17.0671 13.3332 16.6004 13.3332 15.667V9.33366C13.3332 8.40024 13.3332 7.93353 13.1515 7.57701C12.9917 7.2634 12.7368 7.00844 12.4232 6.84865C12.0666 6.66699 11.5999 6.66699 10.6665 6.66699H4.33317C3.39975 6.66699 2.93304 6.66699 2.57652 6.84865C2.26292 7.00844 2.00795 7.2634 1.84816 7.57701C1.6665 7.93353 1.6665 8.40024 1.6665 9.33366V15.667C1.6665 16.6004 1.6665 17.0671 1.84816 17.4236C2.00795 17.7372 2.26292 17.9922 2.57652 18.152C2.93304 18.3337 3.39975 18.3337 4.33317 18.3337Z" stroke="#98A2B3" stroke-width="1.5" stroke-linecap="round" stroke-linejoin="round"/>
</g>
<defs>
<clipPath id="clip0_11268_38821">
<rect width="20" height="20" fill="white"/>
</clipPath>
</defs>
</svg>
