<svg width="20" height="20" viewBox="0 0 20 20" fill="none" xmlns="http://www.w3.org/2000/svg">
<g clip-path="url(#clip0_11268_13175)">
<path d="M0.833496 9.63301C0.833496 5.48463 0.833496 3.41047 2.12223 2.12174C3.41096 0.833008 5.48512 0.833008 9.6335 0.833008H10.3668C14.5152 0.833008 16.5894 0.833008 17.8781 2.12174C19.1668 3.41047 19.1668 5.48463 19.1668 9.63301V10.3663C19.1668 14.5147 19.1668 16.5889 17.8781 17.8776C16.5894 19.1663 14.5152 19.1663 10.3668 19.1663H9.6335C5.48512 19.1663 3.41096 19.1663 2.12223 17.8776C0.833496 16.5889 0.833496 14.5147 0.833496 10.3663V9.63301Z" fill="#0B3BEC"/>
<rect x="13.3335" y="5.83301" width="1.66667" height="9.16667" fill="white"/>
<path d="M12.5 5.83301H11.6528L10 11.1306V11.6663H11.1453L12.5 7.8221V5.83301Z" fill="white"/>
<path d="M7.5 5.83301H8.34724L10 11.1306V11.6663H8.85468L7.5 7.8221V5.83301Z" fill="white"/>
<rect width="1.66667" height="9.16667" transform="matrix(-1 0 0 1 6.6665 5.83301)" fill="white"/>
</g>
<defs>
<clipPath id="clip0_11268_13175">
<rect width="20" height="20" fill="white"/>
</clipPath>
</defs>
</svg>
