<svg width="109" height="109" viewBox="0 0 109 109" fill="none" xmlns="http://www.w3.org/2000/svg">
<g filter="url(#filter0_dd_1083_50505)">
<g filter="url(#filter1_di_1083_50505)">
<path d="M14 38C14 29.1634 21.1634 22 30 22H63C71.8366 22 79 29.1634 79 38V71C79 79.8366 71.8366 87 63 87H30C21.1634 87 14 79.8366 14 71V38Z" fill="#0B3BEC"/>
</g>
<path fill-rule="evenodd" clip-rule="evenodd" d="M51.4999 46H49.4999L46.4999 58H48.4999L51.2499 47H51.9998V63H53.9998V46H52.9998H51.9998H51.4999L51.4999 46ZM58.9998 46H56.9998V63H58.9998V46Z" fill="white"/>
<rect x="45" y="57" width="2" height="1" fill="white"/>
<path fill-rule="evenodd" clip-rule="evenodd" d="M41.4999 46H43.4999L46.4999 58H44.4999L41.7499 47H41V63H39V46H40H41H41.4999L41.4999 46ZM34 46H36V63H34V46Z" fill="white"/>
</g>
<defs>
<filter id="filter0_dd_1083_50505" x="7.90625" y="17.9375" width="77.1875" height="77.1875" filterUnits="userSpaceOnUse" color-interpolation-filters="sRGB">
<feFlood flood-opacity="0" result="BackgroundImageFix"/>
<feColorMatrix in="SourceAlpha" type="matrix" values="0 0 0 0 0 0 0 0 0 0 0 0 0 0 0 0 0 0 127 0" result="hardAlpha"/>
<feOffset dy="2.03125"/>
<feGaussianBlur stdDeviation="2.03125"/>
<feColorMatrix type="matrix" values="0 0 0 0 0.0627451 0 0 0 0 0.0941176 0 0 0 0 0.156863 0 0 0 0.06 0"/>
<feBlend mode="normal" in2="BackgroundImageFix" result="effect1_dropShadow_1083_50505"/>
<feColorMatrix in="SourceAlpha" type="matrix" values="0 0 0 0 0 0 0 0 0 0 0 0 0 0 0 0 0 0 127 0" result="hardAlpha"/>
<feOffset dy="2.03125"/>
<feGaussianBlur stdDeviation="3.04688"/>
<feColorMatrix type="matrix" values="0 0 0 0 0.0627451 0 0 0 0 0.0941176 0 0 0 0 0.156863 0 0 0 0.1 0"/>
<feBlend mode="normal" in2="effect1_dropShadow_1083_50505" result="effect2_dropShadow_1083_50505"/>
<feBlend mode="normal" in="SourceGraphic" in2="effect2_dropShadow_1083_50505" result="shape"/>
</filter>
<filter id="filter1_di_1083_50505" x="0.333334" y="0.333334" width="108.333" height="108.333" filterUnits="userSpaceOnUse" color-interpolation-filters="sRGB">
<feFlood flood-opacity="0" result="BackgroundImageFix"/>
<feColorMatrix in="SourceAlpha" type="matrix" values="0 0 0 0 0 0 0 0 0 0 0 0 0 0 0 0 0 0 127 0" result="hardAlpha"/>
<feOffset dx="8"/>
<feGaussianBlur stdDeviation="10.8333"/>
<feComposite in2="hardAlpha" operator="out"/>
<feColorMatrix type="matrix" values="0 0 0 0 0.219608 0 0 0 0 0.392157 0 0 0 0 1 0 0 0 0.6 0"/>
<feBlend mode="normal" in2="BackgroundImageFix" result="effect1_dropShadow_1083_50505"/>
<feBlend mode="normal" in="SourceGraphic" in2="effect1_dropShadow_1083_50505" result="shape"/>
<feColorMatrix in="SourceAlpha" type="matrix" values="0 0 0 0 0 0 0 0 0 0 0 0 0 0 0 0 0 0 127 0" result="hardAlpha"/>
<feOffset dx="20"/>
<feGaussianBlur stdDeviation="15"/>
<feComposite in2="hardAlpha" operator="arithmetic" k2="-1" k3="1"/>
<feColorMatrix type="matrix" values="0 0 0 0 0.2125 0 0 0 0 0.95275 0 0 0 0 1 0 0 0 0.61 0"/>
<feBlend mode="normal" in2="shape" result="effect2_innerShadow_1083_50505"/>
</filter>
</defs>
</svg>
