<svg width="20" height="20" viewBox="0 0 20 20" fill="none" xmlns="http://www.w3.org/2000/svg">
<g id="magic-wand-01">
<path id="Icon" d="M10.8332 11.6667L8.33321 9.16675M12.5085 2.91675V1.66675M15.7913 4.2173L16.6752 3.33341M15.7913 10.8334L16.6752 11.7173M9.17517 4.2173L8.29128 3.33341M17.0918 7.50008H18.3418M5.10935 17.3906L12.8071 9.69289C13.1371 9.36288 13.3021 9.19787 13.3639 9.0076C13.4183 8.84023 13.4183 8.65994 13.3639 8.49257C13.3021 8.30229 13.1371 8.13729 12.8071 7.80727L12.1927 7.19289C11.8627 6.86288 11.6977 6.69787 11.5074 6.63605C11.34 6.58166 11.1597 6.58166 10.9924 6.63605C10.8021 6.69787 10.6371 6.86288 10.3071 7.19289L2.60935 14.8906C2.27934 15.2206 2.11433 15.3856 2.0525 15.5759C1.99812 15.7433 1.99812 15.9236 2.0525 16.0909C2.11433 16.2812 2.27934 16.4462 2.60935 16.7762L3.22373 17.3906C3.55375 17.7206 3.71875 17.8856 3.90903 17.9475C4.0764 18.0018 4.25669 18.0018 4.42405 17.9475C4.61433 17.8856 4.77934 17.7206 5.10935 17.3906Z" stroke="#0B3BEC" stroke-width="1.5" stroke-linecap="round" stroke-linejoin="round"/>
</g>
</svg>
