<svg width="4" height="16" viewBox="0 0 4 16" fill="none" xmlns="http://www.w3.org/2000/svg">
<path d="M1.99984 8.83398C2.46007 8.83398 2.83317 8.46089 2.83317 8.00065C2.83317 7.54041 2.46007 7.16732 1.99984 7.16732C1.5396 7.16732 1.1665 7.54041 1.1665 8.00065C1.1665 8.46089 1.5396 8.83398 1.99984 8.83398Z" stroke="#98A2B3" stroke-width="1.5" stroke-linecap="round" stroke-linejoin="round"/>
<path d="M1.99984 3.00065C2.46007 3.00065 2.83317 2.62755 2.83317 2.16732C2.83317 1.70708 2.46007 1.33398 1.99984 1.33398C1.5396 1.33398 1.1665 1.70708 1.1665 2.16732C1.1665 2.62755 1.5396 3.00065 1.99984 3.00065Z" stroke="#98A2B3" stroke-width="1.5" stroke-linecap="round" stroke-linejoin="round"/>
<path d="M1.99984 14.6673C2.46007 14.6673 2.83317 14.2942 2.83317 13.834C2.83317 13.3737 2.46007 13.0007 1.99984 13.0007C1.5396 13.0007 1.1665 13.3737 1.1665 13.834C1.1665 14.2942 1.5396 14.6673 1.99984 14.6673Z" stroke="#98A2B3" stroke-width="1.5" stroke-linecap="round" stroke-linejoin="round"/>
</svg>
