<svg width="16" height="18" viewBox="0 0 16 17" fill="none" xmlns="http://www.w3.org/2000/svg">
<path d="M12.1666 6.83333V5.16667C12.1666 2.86548 10.3011 1 7.99992 1C5.69873 1 3.83325 2.86548 3.83325 5.16667V6.83333M7.99992 10.5833V12.25M5.33325 16H10.6666C12.0667 16 12.7668 16 13.3016 15.7275C13.772 15.4878 14.1544 15.1054 14.3941 14.635C14.6666 14.1002 14.6666 13.4001 14.6666 12V10.8333C14.6666 9.4332 14.6666 8.73314 14.3941 8.19836C14.1544 7.72795 13.772 7.3455 13.3016 7.10582C12.7668 6.83333 12.0667 6.83333 10.6666 6.83333H5.33325C3.93312 6.83333 3.23306 6.83333 2.69828 7.10582C2.22787 7.3455 1.84542 7.72795 1.60574 8.19836C1.33325 8.73314 1.33325 9.4332 1.33325 10.8333V12C1.33325 13.4001 1.33325 14.1002 1.60574 14.635C1.84542 15.1054 2.22787 15.4878 2.69828 15.7275C3.23306 16 3.93312 16 5.33325 16Z" stroke="#667085" stroke-width="1.5" stroke-linecap="round" stroke-linejoin="round"/>
</svg>
