<svg width="20" height="20" viewBox="0 0 20 20" fill="none" xmlns="http://www.w3.org/2000/svg">
<g id="image-05">
<path id="Icon" d="M15.8333 17.5H16.6753C17.4846 17.5 17.8892 17.5 18.1123 17.3313C18.3066 17.1843 18.4269 16.9596 18.4414 16.7163C18.458 16.4371 18.2336 16.1004 17.7847 15.4271L15.276 11.6641C14.9051 11.1077 14.7196 10.8295 14.4858 10.7325C14.2815 10.6478 14.0518 10.6478 13.8474 10.7325C13.6136 10.8295 13.4282 11.1077 13.0572 11.6641L12.4371 12.5943M15.8333 17.5L9.42954 8.25015C9.06126 7.71818 8.87712 7.4522 8.6471 7.3587C8.44589 7.2769 8.22069 7.2769 8.01947 7.3587C7.78946 7.4522 7.60531 7.71818 7.23703 8.25015L2.28179 15.4077C1.8126 16.0854 1.578 16.4243 1.59136 16.7061C1.60299 16.9515 1.72234 17.1793 1.91751 17.3286C2.14162 17.5 2.55376 17.5 3.37804 17.5H15.8333ZM17.5 5C17.5 6.38071 16.3807 7.5 15 7.5C13.6192 7.5 12.5 6.38071 12.5 5C12.5 3.61929 13.6192 2.5 15 2.5C16.3807 2.5 17.5 3.61929 17.5 5Z" stroke="#0B3BEC" stroke-width="1.5" stroke-linecap="round" stroke-linejoin="round"/>
</g>
</svg>
