<svg width="22" height="24" viewBox="0 0 22 23" fill="none" xmlns="http://www.w3.org/2000/svg">
<path d="M6 8.99958L1 11.4996L10.6422 16.3207C10.7734 16.3863 10.839 16.4191 10.9078 16.432C10.9687 16.4434 11.0313 16.4434 11.0922 16.432C11.161 16.4191 11.2266 16.3863 11.3578 16.3207L21 11.4996L16 8.99958M6 13.9996L1 16.4996L10.6422 21.3207C10.7734 21.3863 10.839 21.4191 10.9078 21.432C10.9687 21.4434 11.0313 21.4434 11.0922 21.432C11.161 21.4191 11.2266 21.3863 11.3578 21.3207L21 16.4996L16 13.9996M1 6.49958L10.6422 1.67846C10.7734 1.61287 10.839 1.58008 10.9078 1.56717C10.9687 1.55574 11.0313 1.55574 11.0922 1.56717C11.161 1.58008 11.2266 1.61287 11.3578 1.67846L21 6.49958L11.3578 11.3207C11.2266 11.3863 11.161 11.4191 11.0922 11.432C11.0313 11.4434 10.9687 11.4434 10.9078 11.432C10.839 11.4191 10.7734 11.3863 10.6422 11.3207L1 6.49958Z" stroke="#2D384B" stroke-width="1.5" stroke-linecap="round" stroke-linejoin="round"/>
</svg>
