<svg width="20" height="21" viewBox="0 0 20 21" fill="none" xmlns="http://www.w3.org/2000/svg">
<g clip-path="url(#clip0_11746_23743)">
<path d="M10 20.5C15.5228 20.5 20 16.0228 20 10.5C20 4.97715 15.5228 0.5 10 0.5C4.47715 0.5 0 4.97715 0 10.5C0 16.0228 4.47715 20.5 10 20.5Z" fill="white"/>
<path d="M19.3783 13.978C19.7802 12.8946 20.0002 11.7229 20.0002 10.4997C20.0002 9.27652 19.7802 8.1048 19.3783 7.02148H0.622236C0.220283 8.1048 0.000244141 9.27652 0.000244141 10.4997C0.000244141 11.7229 0.220283 12.8946 0.622236 13.978L10.0002 14.8475L19.3783 13.978Z" fill="#0052B4"/>
<path d="M10.0003 20.4993C14.3 20.4993 17.9654 17.7856 19.3783 13.9775H0.622314C2.03524 17.7856 5.70067 20.4993 10.0003 20.4993Z" fill="#D80027"/>
</g>
<defs>
<clipPath id="clip0_11746_23743">
<rect width="20" height="20" fill="white" transform="translate(0 0.5)"/>
</clipPath>
</defs>
</svg>
