<svg width="16" height="12" viewBox="0 0 16 11" fill="none" xmlns="http://www.w3.org/2000/svg">
<path d="M1.61342 5.9761C1.52262 5.83234 1.47723 5.76046 1.45182 5.6496C1.43273 5.56632 1.43273 5.43498 1.45182 5.35171C1.47723 5.24084 1.52262 5.16896 1.61341 5.0252C2.36369 3.83721 4.59693 0.833984 8.00027 0.833984C11.4036 0.833984 13.6369 3.83721 14.3871 5.0252C14.4779 5.16896 14.5233 5.24084 14.5487 5.35171C14.5678 5.43498 14.5678 5.56632 14.5487 5.6496C14.5233 5.76046 14.4779 5.83234 14.3871 5.9761C13.6369 7.16409 11.4036 10.1673 8.00027 10.1673C4.59693 10.1673 2.36369 7.16409 1.61342 5.9761Z" stroke="#667085" stroke-width="1.5" stroke-linecap="round" stroke-linejoin="round"/>
<path d="M8.00027 7.50065C9.10484 7.50065 10.0003 6.60522 10.0003 5.50065C10.0003 4.39608 9.10484 3.50065 8.00027 3.50065C6.8957 3.50065 6.00027 4.39608 6.00027 5.50065C6.00027 6.60522 6.8957 7.50065 8.00027 7.50065Z" stroke="#667085" stroke-width="1.5" stroke-linecap="round" stroke-linejoin="round"/>
</svg>
