<svg width="16" height="20" viewBox="0 0 16 20" fill="none" xmlns="http://www.w3.org/2000/svg">
<path d="M9.66683 1.89063V5.33274C9.66683 5.79945 9.66683 6.03281 9.75766 6.21107C9.83755 6.36787 9.96504 6.49535 10.1218 6.57525C10.3001 6.66608 10.5335 6.66608 11.0002 6.66608H14.4423M11.3335 10.8327H4.66683M11.3335 14.166H4.66683M6.3335 7.49935H4.66683M9.66683 1.66602H5.3335C3.93336 1.66602 3.2333 1.66602 2.69852 1.9385C2.22811 2.17818 1.84566 2.56063 1.60598 3.03104C1.3335 3.56582 1.3335 4.26588 1.3335 5.66602V14.3327C1.3335 15.7328 1.3335 16.4329 1.60598 16.9677C1.84566 17.4381 2.22811 17.8205 2.69852 18.0602C3.2333 18.3327 3.93336 18.3327 5.3335 18.3327H10.6668C12.067 18.3327 12.767 18.3327 13.3018 18.0602C13.7722 17.8205 14.1547 17.4381 14.3943 16.9677C14.6668 16.4329 14.6668 15.7328 14.6668 14.3327V6.66602L9.66683 1.66602Z" stroke="#98A2B3" stroke-width="1.5" stroke-linecap="round" stroke-linejoin="round"/>
</svg>
