<svg width="20" height="20" viewBox="0 0 20 20" fill="none" xmlns="http://www.w3.org/2000/svg">
<path d="M9.99984 18.3327C14.6022 18.3327 18.3332 14.6017 18.3332 9.99935C18.3332 5.39698 14.6022 1.66602 9.99984 1.66602C5.39746 1.66602 1.6665 5.39698 1.6665 9.99935C1.6665 14.6017 5.39746 18.3327 9.99984 18.3327Z" stroke="#2D384B" stroke-width="1.5" stroke-linecap="round" stroke-linejoin="round"/>
<path d="M6.6665 7.99935C6.6665 7.53264 6.6665 7.29928 6.75733 7.12102C6.83723 6.96422 6.96471 6.83674 7.12151 6.75684C7.29977 6.66602 7.53313 6.66602 7.99984 6.66602H11.9998C12.4665 6.66602 12.6999 6.66602 12.8782 6.75684C13.035 6.83674 13.1624 6.96422 13.2423 7.12102C13.3332 7.29928 13.3332 7.53264 13.3332 7.99935V11.9993C13.3332 12.4661 13.3332 12.6994 13.2423 12.8777C13.1624 13.0345 13.035 13.162 12.8782 13.2419C12.6999 13.3327 12.4665 13.3327 11.9998 13.3327H7.99984C7.53313 13.3327 7.29977 13.3327 7.12151 13.2419C6.96471 13.162 6.83723 13.0345 6.75733 12.8777C6.6665 12.6994 6.6665 12.4661 6.6665 11.9993V7.99935Z" stroke="#2D384B" stroke-width="1.5" stroke-linecap="round" stroke-linejoin="round"/>
</svg>
