<svg width="24" height="20" viewBox="0 0 23 20" fill="none" xmlns="http://www.w3.org/2000/svg">
<path d="M7.6665 19V5C7.6665 4.07003 7.6665 3.60504 7.76873 3.22354C8.04613 2.18827 8.85477 1.37962 9.89005 1.10222C10.2715 1 10.7365 1 11.6665 1C12.5965 1 13.0615 1 13.443 1.10222C14.4782 1.37962 15.2869 2.18827 15.5643 3.22354C15.6665 3.60504 15.6665 4.07003 15.6665 5V19M4.8665 19H18.4665C19.5866 19 20.1467 19 20.5745 18.782C20.9508 18.5903 21.2568 18.2843 21.4485 17.908C21.6665 17.4802 21.6665 16.9201 21.6665 15.8V8.2C21.6665 7.07989 21.6665 6.51984 21.4485 6.09202C21.2568 5.71569 20.9508 5.40973 20.5745 5.21799C20.1467 5 19.5866 5 18.4665 5H4.8665C3.7464 5 3.18635 5 2.75852 5.21799C2.3822 5.40973 2.07624 5.71569 1.88449 6.09202C1.6665 6.51984 1.6665 7.07989 1.6665 8.2V15.8C1.6665 16.9201 1.6665 17.4802 1.88449 17.908C2.07624 18.2843 2.3822 18.5903 2.75852 18.782C3.18635 19 3.7464 19 4.8665 19Z" stroke="#0B3BEC" stroke-width="2" stroke-linecap="round" stroke-linejoin="round"/>
</svg>
