<svg width="20" height="20" viewBox="0 0 20 20" fill="none" xmlns="http://www.w3.org/2000/svg">
<g clip-path="url(#clip0_11367_38653)">
<path d="M0.833496 9.63301C0.833496 5.48463 0.833496 3.41047 2.12223 2.12174C3.41096 0.833008 5.48512 0.833008 9.6335 0.833008H10.3668C14.5152 0.833008 16.5894 0.833008 17.8781 2.12174C19.1668 3.41047 19.1668 5.48463 19.1668 9.63301V10.3663C19.1668 14.5147 19.1668 16.5889 17.8781 17.8776C16.5894 19.1663 14.5152 19.1663 10.3668 19.1663H9.6335C5.48512 19.1663 3.41096 19.1663 2.12223 17.8776C0.833496 16.5889 0.833496 14.5147 0.833496 10.3663V9.63301Z" fill="#0077FF"/>
<path d="M10.5883 14.0404C6.40985 14.0404 4.02655 11.1758 3.92725 6.40918H6.0203C6.08905 9.90779 7.63207 11.3897 8.85429 11.6953V6.40918H10.8252V9.42654C12.0321 9.29668 13.3 7.92168 13.7278 6.40918H15.6987C15.3702 8.27307 13.9952 9.64807 13.0174 10.2133C13.9952 10.6717 15.5613 11.871 16.1571 14.0404H13.9876C13.5216 12.589 12.3606 11.4661 10.8252 11.3133V14.0404H10.5883Z" fill="white"/>
</g>
<defs>
<clipPath id="clip0_11367_38653">
<rect width="20" height="20" fill="white"/>
</clipPath>
</defs>
</svg>
