<svg width="25" height="25" viewBox="0 0 25 25" fill="none" xmlns="http://www.w3.org/2000/svg">
<g clip-path="url(#clip0_11367_4003)">
<path d="M0.5 12.5C0.5 5.8724 5.8712 0.5 12.5 0.5C19.1264 0.5 24.5 5.8724 24.5 12.5C24.5 19.1276 19.1264 24.5 12.5 24.5C5.8712 24.5 0.5 19.1276 0.5 12.5Z" fill="#FC3F1D"/>
<path d="M14.0363 7.29915H12.9275C10.8947 7.29915 9.82548 8.32875 9.82548 9.84675C9.82548 11.5627 10.5647 12.3667 12.0827 13.3975L13.3367 14.2423L9.73308 19.6267H7.04028L10.2743 14.8099C8.41428 13.4767 7.37028 12.1819 7.37028 9.99195C7.37028 7.24635 9.28428 5.37195 12.9143 5.37195H16.5179V19.6135H14.0363V7.29915Z" fill="white"/>
</g>
<defs>
<clipPath id="clip0_11367_4003">
<rect width="24" height="24" fill="white" transform="translate(0.5 0.5)"/>
</clipPath>
</defs>
</svg>
